<mxfile host="app.diagrams.net" agent="Mozilla/5.0 (Windows NT 10.0; Win64; x64) AppleWebKit/537.36 (KHTML, like Gecko) Chrome/140.0.0.0 Safari/537.36" version="28.2.3">
  <diagram name="Trang-1" id="4zdAmmL9ZMX3OoHl71JS">
    <mxGraphModel dx="1123" dy="644" grid="1" gridSize="10" guides="1" tooltips="1" connect="1" arrows="1" fold="1" page="1" pageScale="1" pageWidth="827" pageHeight="1169" math="0" shadow="0">
      <root>
        <mxCell id="0" />
        <mxCell id="1" parent="0" />
        <mxCell id="XOmJ1WLNWN3yM4tohgsH-2" value="&lt;font style=&quot;vertical-align: inherit;&quot; dir=&quot;auto&quot;&gt;&lt;font style=&quot;vertical-align: inherit;&quot; dir=&quot;auto&quot;&gt;BBắt Đầu&lt;/font&gt;&lt;/font&gt;" style="ellipse;whiteSpace=wrap;html=1;fontSize=14;" vertex="1" parent="1">
          <mxGeometry x="260" width="190" height="90" as="geometry" />
        </mxCell>
        <mxCell id="XOmJ1WLNWN3yM4tohgsH-4" value="" style="html=1;shadow=0;dashed=0;align=center;verticalAlign=middle;shape=mxgraph.arrows2.arrow;dy=0.6;dx=40;direction=south;notch=0;" vertex="1" parent="1">
          <mxGeometry x="320" y="100" width="70" height="100" as="geometry" />
        </mxCell>
        <mxCell id="XOmJ1WLNWN3yM4tohgsH-26" style="edgeStyle=orthogonalEdgeStyle;rounded=0;orthogonalLoop=1;jettySize=auto;html=1;exitX=0;exitY=0;exitDx=60;exitDy=21;exitPerimeter=0;" edge="1" parent="1" source="XOmJ1WLNWN3yM4tohgsH-10">
          <mxGeometry relative="1" as="geometry">
            <mxPoint x="360" y="450" as="targetPoint" />
          </mxGeometry>
        </mxCell>
        <mxCell id="XOmJ1WLNWN3yM4tohgsH-10" value="" style="html=1;shadow=0;dashed=0;align=center;verticalAlign=middle;shape=mxgraph.arrows2.arrow;dy=0.6;dx=40;direction=south;notch=0;" vertex="1" parent="1">
          <mxGeometry x="325" y="280" width="70" height="100" as="geometry" />
        </mxCell>
        <mxCell id="XOmJ1WLNWN3yM4tohgsH-15" value="" style="html=1;shadow=0;dashed=0;align=center;verticalAlign=middle;shape=mxgraph.arrows2.arrow;dy=0.6;dx=40;direction=south;notch=0;" vertex="1" parent="1">
          <mxGeometry x="325" y="500" width="70" height="100" as="geometry" />
        </mxCell>
        <mxCell id="XOmJ1WLNWN3yM4tohgsH-21" style="edgeStyle=orthogonalEdgeStyle;rounded=0;orthogonalLoop=1;jettySize=auto;html=1;exitX=0;exitY=0;exitDx=60;exitDy=49;exitPerimeter=0;entryX=0;entryY=0;entryDx=30;entryDy=49;entryPerimeter=0;" edge="1" parent="1" source="XOmJ1WLNWN3yM4tohgsH-10" target="XOmJ1WLNWN3yM4tohgsH-10">
          <mxGeometry relative="1" as="geometry" />
        </mxCell>
        <mxCell id="XOmJ1WLNWN3yM4tohgsH-25" value="" style="html=1;shadow=0;dashed=0;align=center;verticalAlign=middle;shape=mxgraph.arrows2.arrow;dy=0.6;dx=40;direction=south;notch=0;" vertex="1" parent="1">
          <mxGeometry x="330" y="680" width="70" height="100" as="geometry" />
        </mxCell>
        <mxCell id="XOmJ1WLNWN3yM4tohgsH-29" style="edgeStyle=orthogonalEdgeStyle;rounded=0;orthogonalLoop=1;jettySize=auto;html=1;exitX=1;exitY=0.5;exitDx=0;exitDy=0;exitPerimeter=0;" edge="1" parent="1" source="XOmJ1WLNWN3yM4tohgsH-4" target="XOmJ1WLNWN3yM4tohgsH-4">
          <mxGeometry relative="1" as="geometry" />
        </mxCell>
        <mxCell id="XOmJ1WLNWN3yM4tohgsH-33" value="Lưu thông tin đặt chỗ,&lt;div&gt;khách hàng ,thời gian, ngày&lt;/div&gt;&lt;div&gt;tháng&lt;/div&gt;" style="shape=parallelogram;perimeter=parallelogramPerimeter;whiteSpace=wrap;html=1;fixedSize=1;" vertex="1" parent="1">
          <mxGeometry x="265" y="800" width="190" height="60" as="geometry" />
        </mxCell>
        <mxCell id="XOmJ1WLNWN3yM4tohgsH-37" value="" style="html=1;shadow=0;dashed=0;align=center;verticalAlign=middle;shape=mxgraph.arrows2.arrow;dy=0.6;dx=40;direction=south;notch=0;" vertex="1" parent="1">
          <mxGeometry x="330" y="870" width="70" height="70" as="geometry" />
        </mxCell>
        <mxCell id="XOmJ1WLNWN3yM4tohgsH-39" value="Thông tin chuyến bay và khách hàng" style="shape=parallelogram;perimeter=parallelogramPerimeter;whiteSpace=wrap;html=1;fixedSize=1;" vertex="1" parent="1">
          <mxGeometry x="235" y="210" width="260" height="60" as="geometry" />
        </mxCell>
        <mxCell id="XOmJ1WLNWN3yM4tohgsH-40" value="Bàn phím ,điện thoại ,pc" style="rounded=0;whiteSpace=wrap;html=1;" vertex="1" parent="1">
          <mxGeometry x="530" y="230" width="230" height="20" as="geometry" />
        </mxCell>
        <mxCell id="XOmJ1WLNWN3yM4tohgsH-41" value="Xử lí thông tin hợp lệ&lt;div&gt;(còn hay hết chỗ)&lt;/div&gt;" style="rhombus;whiteSpace=wrap;html=1;" vertex="1" parent="1">
          <mxGeometry x="255" y="390" width="210" height="100" as="geometry" />
        </mxCell>
        <mxCell id="XOmJ1WLNWN3yM4tohgsH-42" value="Kiểm tra thông tin" style="rounded=0;whiteSpace=wrap;html=1;" vertex="1" parent="1">
          <mxGeometry x="530" y="420" width="230" height="20" as="geometry" />
        </mxCell>
        <mxCell id="XOmJ1WLNWN3yM4tohgsH-44" value="hướng dẫn đặt chỗ,&amp;nbsp;&lt;div&gt;xử lí và tính giá&lt;/div&gt;" style="rounded=0;html=1;" vertex="1" parent="1">
          <mxGeometry x="255" y="610" width="210" height="60" as="geometry" />
        </mxCell>
        <mxCell id="XOmJ1WLNWN3yM4tohgsH-45" value="Tính giá, tạo mã đặt chỗ" style="rounded=0;whiteSpace=wrap;html=1;" vertex="1" parent="1">
          <mxGeometry x="530" y="620" width="240" height="20" as="geometry" />
        </mxCell>
        <mxCell id="XOmJ1WLNWN3yM4tohgsH-46" value="Xuất vé" style="shape=parallelogram;perimeter=parallelogramPerimeter;whiteSpace=wrap;html=1;fixedSize=1;" vertex="1" parent="1">
          <mxGeometry x="265" y="950" width="210" height="60" as="geometry" />
        </mxCell>
        <mxCell id="XOmJ1WLNWN3yM4tohgsH-47" value="Màn hình ,email, sms,máy in" style="rounded=0;whiteSpace=wrap;html=1;" vertex="1" parent="1">
          <mxGeometry x="530" y="970" width="210" height="20" as="geometry" />
        </mxCell>
        <mxCell id="XOmJ1WLNWN3yM4tohgsH-48" value="" style="ellipse;whiteSpace=wrap;html=1;" vertex="1" parent="1">
          <mxGeometry x="310" y="1080" width="120" height="80" as="geometry" />
        </mxCell>
        <mxCell id="XOmJ1WLNWN3yM4tohgsH-50" value="" style="html=1;shadow=0;dashed=0;align=center;verticalAlign=middle;shape=mxgraph.arrows2.arrow;dy=0.6;dx=40;direction=south;notch=0;" vertex="1" parent="1">
          <mxGeometry x="352" y="1020" width="38" height="50" as="geometry" />
        </mxCell>
      </root>
    </mxGraphModel>
  </diagram>
</mxfile>
